<svg xmlns="http://www.w3.org/2000/svg" width="1120" height="800" viewBox="0 0 1120 800"><rect x="0" y="0" width="1120" height="800" fill="#1f2326"/><rect x="4" y="4" width="1112" height="792" fill="#3b4856"/><rect x="32" y="32" width="1056" height="736" fill="#4f6072"/><path d="M48 32V768M176 32V768M304 32V768M432 32V768M560 32V768M688 32V768M816 32V768M944 32V768M1072 32V768" stroke="#46576a" stroke-width="3" fill="none"/><circle cx="816" cy="240" r="25.6" fill="#2a2f35" stroke="#1c1f22" stroke-width="3"/><circle cx="816" cy="240" r="14.4" fill="none" stroke="#5b6673" stroke-width="2"/><circle cx="944" cy="240" r="25.6" fill="#2a2f35" stroke="#1c1f22" stroke-width="3"/><circle cx="944" cy="240" r="14.4" fill="none" stroke="#5b6673" stroke-width="2"/><rect x="256" y="584" width="96" height="80" fill="#9aa2a8" stroke="#2c3135" stroke-width="3"/><circle cx="304" cy="624" r="28.8" fill="#6d757b" stroke="#2c3135" stroke-width="2"/><path d="M278.4 624H329.6M304 649.6V598.4" stroke="#3f464b" stroke-width="3"/><rect x="768" y="584" width="96" height="80" fill="#9aa2a8" stroke="#2c3135" stroke-width="3"/><circle cx="816" cy="624" r="28.8" fill="#6d757b" stroke="#2c3135" stroke-width="2"/><path d="M790.4 624H841.6M816 649.6V598.4" stroke="#3f464b" stroke-width="3"/><path d="M464 368L144 656" stroke="#1c1f22" stroke-width="3"/><circle cx="144" cy="656" r="12.8" fill="#9aa2a8" stroke="#1c1f22" stroke-width="3"/><path d="M656 368L976 656" stroke="#1c1f22" stroke-width="3"/><circle cx="976" cy="656" r="12.8" fill="#9aa2a8" stroke="#1c1f22" stroke-width="3"/><path d="M464 176L144 112" stroke="#1c1f22" stroke-width="3"/><circle cx="144" cy="112" r="12.8" fill="#9aa2a8" stroke="#1c1f22" stroke-width="3"/><path d="M656 176L976 112" stroke="#1c1f22" stroke-width="3"/><circle cx="976" cy="112" r="12.8" fill="#9aa2a8" stroke="#1c1f22" stroke-width="3"/><rect x="464" y="176" width="48" height="48" fill="#e0661b"/><rect x="464" y="224" width="48" height="48" fill="#f4f4f0"/><rect x="464" y="272" width="48" height="48" fill="#e0661b"/><rect x="464" y="320" width="48" height="48" fill="#f4f4f0"/><rect x="512" y="176" width="48" height="48" fill="#f4f4f0"/><rect x="512" y="224" width="48" height="48" fill="#e0661b"/><rect x="512" y="272" width="48" height="48" fill="#f4f4f0"/><rect x="512" y="320" width="48" height="48" fill="#e0661b"/><rect x="560" y="176" width="48" height="48" fill="#e0661b"/><rect x="560" y="224" width="48" height="48" fill="#f4f4f0"/><rect x="560" y="272" width="48" height="48" fill="#e0661b"/><rect x="560" y="320" width="48" height="48" fill="#f4f4f0"/><rect x="608" y="176" width="48" height="48" fill="#f4f4f0"/><rect x="608" y="224" width="48" height="48" fill="#e0661b"/><rect x="608" y="272" width="48" height="48" fill="#f4f4f0"/><rect x="608" y="320" width="48" height="48" fill="#e0661b"/><path d="M464 368L656 176" stroke="#1c1f22" stroke-width="4"/><path d="M656 368L464 176" stroke="#1c1f22" stroke-width="4"/><rect x="464" y="176" width="192" height="192" fill="none" stroke="#1c1f22" stroke-width="4"/><circle cx="560" cy="272" r="30.4" fill="#ffffff" stroke="#1c1f22" stroke-width="3"/><circle cx="560" cy="272" r="22.4" fill="#ff3b30"/></svg>
