<svg xmlns="http://www.w3.org/2000/svg" width="1024" height="608" viewBox="0 0 1024 608"><rect x="0" y="0" width="1024" height="608" fill="#1f2326"/><rect x="4" y="4" width="1016" height="600" fill="#8a8676"/><rect x="32" y="32" width="960" height="544" fill="#6e6a5c"/><path d="M128 32V576M256 32V576M384 32V576M512 32V576M640 32V576M768 32V576M896 32V576" stroke="#646052" stroke-width="3" fill="none"/><rect x="144" y="120" width="96" height="80" fill="#9aa2a8" stroke="#2c3135" stroke-width="3"/><circle cx="192" cy="160" r="28.8" fill="#6d757b" stroke="#2c3135" stroke-width="2"/><path d="M166.4 160H217.6M192 185.6V134.4" stroke="#3f464b" stroke-width="3"/><rect x="784" y="376" width="96" height="80" fill="#9aa2a8" stroke="#2c3135" stroke-width="3"/><circle cx="832" cy="416" r="28.8" fill="#6d757b" stroke="#2c3135" stroke-width="2"/><path d="M806.4 416H857.6M832 441.6V390.4" stroke="#3f464b" stroke-width="3"/><path d="M176 432L144 464M176 432L208 464M176 432L176 390.4" stroke="#3f4448" stroke-width="2"/><circle cx="176" cy="432" r="17.6" fill="#5a5d56" stroke="#1f2326" stroke-width="3"/><path d="M176 432L227.2 396.8" stroke="#1f2326" stroke-width="4"/><circle cx="704" cy="96" r="19.2" fill="#7d7a6e" stroke="#1f2326" stroke-width="3"/><circle cx="320" cy="496" r="19.2" fill="#7d7a6e" stroke="#1f2326" stroke-width="3"/><circle cx="512" cy="224" r="134.4" fill="#3f4a28" stroke="#1f2326" stroke-width="4"/><polygon points="512,128 535.7,191.38 603.3,194.33 550.35,236.46 568.43,301.67 512,264.32 455.57,301.67 473.65,236.46 420.7,194.33 488.3,191.38" fill="#e0b030" stroke="#1f2326" stroke-width="3"/></svg>
