<svg xmlns="http://www.w3.org/2000/svg" width="704" height="704" viewBox="0 0 704 704"><rect x="16" y="16" width="672" height="336" fill="#8a8478"/><path d="M32 16V352M96 16V352M160 16V352M224 16V352M288 16V352M352 16V352M416 16V352M480 16V352M544 16V352M608 16V352M672 16V352M16 352H688M16 288H688M16 224H688M16 160H688M16 96H688M16 32H688" stroke="#77726a" stroke-width="2" fill="none"/><rect x="16" y="352" width="672" height="336" fill="#8a8478"/><path d="M32 352V688M96 352V688M160 352V688M224 352V688M288 352V688M352 352V688M416 352V688M480 352V688M544 352V688M608 352V688M672 352V688M16 672H688M16 608H688M16 544H688M16 480H688M16 416H688" stroke="#77726a" stroke-width="2" fill="none"/><rect x="288" y="-8" width="128" height="32" fill="#00000033"/><rect x="288" y="680" width="128" height="32" fill="#00000033"/><rect x="96" y="0" width="96" height="32" fill="#b0a998"/><rect x="96" y="13.44" width="96" height="5.12" fill="#1f2326"/><rect x="512" y="0" width="96" height="32" fill="#b0a998"/><rect x="512" y="13.44" width="96" height="5.12" fill="#1f2326"/><rect x="96" y="672" width="96" height="32" fill="#b0a998"/><rect x="96" y="685.44" width="96" height="5.12" fill="#1f2326"/><rect x="512" y="672" width="96" height="32" fill="#b0a998"/><rect x="512" y="685.44" width="96" height="5.12" fill="#1f2326"/><rect x="0" y="128" width="32" height="96" fill="#b0a998"/><rect x="13.44" y="128" width="5.12" height="96" fill="#1f2326"/><rect x="0" y="480" width="32" height="96" fill="#b0a998"/><rect x="13.44" y="480" width="5.12" height="96" fill="#1f2326"/><rect x="672" y="128" width="32" height="96" fill="#b0a998"/><rect x="685.44" y="128" width="5.12" height="96" fill="#1f2326"/><rect x="672" y="480" width="32" height="96" fill="#b0a998"/><rect x="685.44" y="480" width="5.12" height="96" fill="#1f2326"/><rect x="-3" y="-3" width="102" height="38" fill="#1f2224"/><rect x="189" y="-3" width="102" height="38" fill="#1f2224"/><rect x="413" y="-3" width="102" height="38" fill="#1f2224"/><rect x="605" y="-3" width="102" height="38" fill="#1f2224"/><rect x="-3" y="669" width="102" height="38" fill="#1f2224"/><rect x="189" y="669" width="102" height="38" fill="#1f2224"/><rect x="413" y="669" width="102" height="38" fill="#1f2224"/><rect x="605" y="669" width="102" height="38" fill="#1f2224"/><rect x="-3" y="573" width="38" height="102" fill="#1f2224"/><rect x="-3" y="221" width="38" height="262" fill="#1f2224"/><rect x="-3" y="29" width="38" height="102" fill="#1f2224"/><rect x="669" y="573" width="38" height="102" fill="#1f2224"/><rect x="669" y="221" width="38" height="262" fill="#1f2224"/><rect x="669" y="29" width="38" height="102" fill="#1f2224"/><rect x="141" y="333" width="422" height="38" fill="#1f2224"/><rect x="0" y="0" width="96" height="32" fill="#7d776b"/><rect x="192" y="0" width="96" height="32" fill="#7d776b"/><rect x="416" y="0" width="96" height="32" fill="#7d776b"/><rect x="608" y="0" width="96" height="32" fill="#7d776b"/><rect x="0" y="672" width="96" height="32" fill="#7d776b"/><rect x="192" y="672" width="96" height="32" fill="#7d776b"/><rect x="416" y="672" width="96" height="32" fill="#7d776b"/><rect x="608" y="672" width="96" height="32" fill="#7d776b"/><rect x="0" y="576" width="32" height="96" fill="#7d776b"/><rect x="0" y="224" width="32" height="256" fill="#7d776b"/><rect x="0" y="32" width="32" height="96" fill="#7d776b"/><rect x="672" y="576" width="32" height="96" fill="#7d776b"/><rect x="672" y="224" width="32" height="256" fill="#7d776b"/><rect x="672" y="32" width="32" height="96" fill="#7d776b"/><rect x="144" y="336" width="416" height="32" fill="#7d776b"/></svg>
