<svg xmlns="http://www.w3.org/2000/svg" width="736" height="544" viewBox="0 0 736 544"><rect x="0" y="0" width="736" height="544" fill="#1f2326"/><rect x="4" y="4" width="728" height="536" fill="#c9c6bd"/><rect x="32" y="32" width="672" height="480" fill="#e8e6df"/><path d="M112 32V512M240 32V512M368 32V512M496 32V512M624 32V512" stroke="#d6d3ca" stroke-width="3" fill="none"/><rect x="64" y="28.8" width="608" height="28.8" fill="#2b4a5e" stroke="#1f2326" stroke-width="3"/><rect x="272" y="320" width="192" height="176" fill="#2f3438" stroke="#1f2326" stroke-width="4" rx="20"/><rect x="291.2" y="339.2" width="153.6" height="137.6" fill="#2a6fb0" rx="14"/><rect x="316.8" y="364.8" width="102.4" height="86.4" fill="#1a1d20" rx="10"/><path d="M208 176L528 176" stroke="#1f2326" stroke-width="6"/><circle cx="368" cy="176" r="25.6" fill="#e8e6df" stroke="#1f2326" stroke-width="4"/><circle cx="208" cy="176" r="11.2" fill="#d8402f"/><circle cx="528" cy="176" r="11.2" fill="#3f9b4b"/><rect x="49.6" y="256" width="76.8" height="224" fill="#f28c1e" stroke="#1f2326" stroke-width="4" rx="33.6"/><rect x="66.88" y="288" width="42.24" height="160" fill="#f4f4f0" stroke="#b8651a" stroke-width="2" rx="10"/><rect x="609.6" y="256" width="76.8" height="224" fill="#f28c1e" stroke="#1f2326" stroke-width="4" rx="33.6"/><rect x="626.88" y="288" width="42.24" height="160" fill="#f4f4f0" stroke="#b8651a" stroke-width="2" rx="10"/><rect x="464" y="376" width="96" height="80" fill="#9aa2a8" stroke="#2c3135" stroke-width="3"/><circle cx="512" cy="416" r="28.8" fill="#6d757b" stroke="#2c3135" stroke-width="2"/><path d="M486.4 416H537.6M512 441.6V390.4" stroke="#3f464b" stroke-width="3"/></svg>
