<svg xmlns="http://www.w3.org/2000/svg" width="576" height="192" viewBox="0 0 576 192"><rect x="16" y="16" width="544" height="160" fill="#a07848"/><path d="M288 16V176M16 96H560" stroke="#a07848" stroke-width="2" fill="none"/><rect x="16" y="176" width="544" height="16" fill="#7a5a34"/><rect x="16" y="0" width="544" height="16" fill="#7a5a34"/><path d="M176 176V156M320 176V156M464 176V156M32 156H544M111.2 156V136M255.2 156V136M399.2 156V136M32 136H544M60.8 136V116M204.8 136V116M348.8 136V116M492.8 136V116M32 116H544M147.2 116V96M291.2 116V96M435.2 116V96M32 96H544M89.6 96V76M233.6 96V76M377.6 96V76M521.6 96V76M32 76H544M176 76V56M320 76V56M464 76V56M32 56H544M111.2 56V36M255.2 56V36M399.2 56V36M32 36H544M60.8 36V16M204.8 36V16M348.8 36V16M492.8 36V16" stroke="#8a6538" stroke-width="2" fill="none"/><path d="M16 176H560M16 16H560" stroke="#5e4427" stroke-width="3"/><rect x="29" y="157" width="198" height="38" fill="#1f2326"/><rect x="32" y="160" width="192" height="32" fill="#7c868c"/><rect x="32" y="172.16" width="192" height="7.68" fill="#5d666c"/><rect x="49.6" y="166.4" width="12.8" height="19.2" fill="#4a5257" stroke="#1f2326" stroke-width="2"/><rect x="97.6" y="166.4" width="12.8" height="19.2" fill="#4a5257" stroke="#1f2326" stroke-width="2"/><rect x="145.6" y="166.4" width="12.8" height="19.2" fill="#4a5257" stroke="#1f2326" stroke-width="2"/><rect x="193.6" y="166.4" width="12.8" height="19.2" fill="#4a5257" stroke="#1f2326" stroke-width="2"/><rect x="349" y="157" width="198" height="38" fill="#1f2326"/><rect x="352" y="160" width="192" height="32" fill="#7c868c"/><rect x="352" y="172.16" width="192" height="7.68" fill="#5d666c"/><rect x="369.6" y="166.4" width="12.8" height="19.2" fill="#4a5257" stroke="#1f2326" stroke-width="2"/><rect x="417.6" y="166.4" width="12.8" height="19.2" fill="#4a5257" stroke="#1f2326" stroke-width="2"/><rect x="465.6" y="166.4" width="12.8" height="19.2" fill="#4a5257" stroke="#1f2326" stroke-width="2"/><rect x="513.6" y="166.4" width="12.8" height="19.2" fill="#4a5257" stroke="#1f2326" stroke-width="2"/><rect x="-3" y="-3" width="38" height="198" fill="#241a17"/><rect x="541" y="-3" width="38" height="198" fill="#241a17"/><rect x="0" y="0" width="32" height="192" fill="#8e5444"/><rect x="544" y="0" width="32" height="192" fill="#8e5444"/></svg>
