<svg xmlns="http://www.w3.org/2000/svg" width="192" height="496" viewBox="0 0 192 496"><rect x="16" y="-16" width="160" height="512" fill="#6c6a62"/><path d="M32 -16V496M96 -16V496M160 -16V496M16 496H176M16 432H176M16 368H176M16 304H176M16 240H176M16 176H176M16 112H176M16 48H176" stroke="#625f58" stroke-width="2" fill="none"/><defs><pattern id="bunker-pad-0" patternUnits="userSpaceOnUse" width="32" height="32" patternTransform="rotate(45)"><rect width="32" height="32" fill="#26282a"/><rect width="16" height="32" fill="#e2b425"/></pattern></defs><rect x="611.2" y="-108.8" width="89.6" height="89.6" fill="url(#bunker-pad-0)"/><defs><pattern id="bunker-pad-1" patternUnits="userSpaceOnUse" width="32" height="32" patternTransform="rotate(45)"><rect width="32" height="32" fill="#26282a"/><rect width="16" height="32" fill="#e2b425"/></pattern></defs><rect x="1411.2" y="-108.8" width="89.6" height="89.6" fill="url(#bunker-pad-1)"/><rect x="16" y="75.2" width="160" height="9.6" fill="#55534c"/><rect x="16" y="203.2" width="160" height="9.6" fill="#55534c"/><rect x="16" y="331.2" width="160" height="9.6" fill="#55534c"/><rect x="992" y="-1648" width="128" height="32" fill="#7a7c76"/><rect x="1760" y="-1648" width="128" height="32" fill="#7a7c76"/><rect x="-128" y="-1136" width="32" height="128" fill="#7a7c76"/><rect x="2208" y="-656" width="16" height="288" fill="#5f6264"/><rect x="32" y="464" width="128" height="32" fill="#7a7c76"/><rect x="32" y="456" width="128" height="32" fill="#00000033"/><defs><pattern id="door-hazard-1" patternUnits="userSpaceOnUse" width="32" height="32" patternTransform="rotate(45)"><rect width="32" height="32" fill="#26282a"/><rect width="16" height="32" fill="#e2b425"/></pattern></defs><rect x="32" y="-32" width="128" height="32" fill="url(#door-hazard-1)"/><rect x="-115" y="-35" width="102" height="38" fill="#161816"/><rect x="-19" y="-35" width="54" height="38" fill="#161816"/><rect x="157" y="-35" width="806" height="38" fill="#161816"/><rect x="-3" y="333" width="38" height="358" fill="#161816"/><rect x="-3" y="-3" width="38" height="342" fill="#161816"/><rect x="157" y="333" width="38" height="358" fill="#161816"/><rect x="157" y="-3" width="38" height="342" fill="#161816"/><rect x="-112" y="-32" width="96" height="32" fill="#4a4c47"/><rect x="-16" y="-32" width="48" height="32" fill="#4a4c47"/><rect x="160" y="-32" width="800" height="32" fill="#4a4c47"/><rect x="0" y="336" width="32" height="352" fill="#4a4c47"/><rect x="0" y="0" width="32" height="336" fill="#4a4c47"/><rect x="160" y="336" width="32" height="352" fill="#4a4c47"/><rect x="160" y="0" width="32" height="336" fill="#4a4c47"/></svg>
