<svg xmlns="http://www.w3.org/2000/svg" width="1120" height="800" viewBox="0 0 1120 800"><rect x="16" y="464" width="1088" height="320" fill="#cfcac0"/><path d="M48 464V784M112 464V784M176 464V784M240 464V784M304 464V784M368 464V784M432 464V784M496 464V784M560 464V784M624 464V784M688 464V784M752 464V784M816 464V784M880 464V784M944 464V784M1008 464V784M1072 464V784M16 784H1104M16 720H1104M16 656H1104M16 592H1104M16 528H1104" stroke="#bcb7ad" stroke-width="2" fill="none"/><rect x="16" y="16" width="384" height="448" fill="#4f5a6b"/><path d="M16 16V464M48 16V464M80 16V464M112 16V464M144 16V464M176 16V464M208 16V464M240 16V464M272 16V464M304 16V464M336 16V464M368 16V464M16 464H400M16 432H400M16 400H400M16 368H400M16 336H400M16 304H400M16 272H400M16 240H400M16 208H400M16 176H400M16 144H400M16 112H400M16 80H400M16 48H400" stroke="#465161" stroke-width="2" fill="none"/><rect x="400" y="304" width="352" height="160" fill="#8fa39a"/><path d="M432 304V464M496 304V464M560 304V464M624 304V464M688 304V464M400 464H752M400 400H752M400 336H752" stroke="#7f948a" stroke-width="2" fill="none"/><rect x="400" y="16" width="352" height="288" fill="#5f6b73"/><path d="M400 16V304M432 16V304M464 16V304M496 16V304M528 16V304M560 16V304M592 16V304M624 16V304M656 16V304M688 16V304M720 16V304M400 304H752M400 272H752M400 240H752M400 208H752M400 176H752M400 144H752M400 112H752M400 80H752M400 48H752" stroke="#545f67" stroke-width="2" fill="none"/><rect x="752" y="16" width="352" height="448" fill="#8a8c85"/><path d="M816 16V464M944 16V464M1072 16V464M752 400H1104M752 272H1104M752 144H1104" stroke="#7a7c75" stroke-width="2" fill="none"/><rect x="448" y="320" width="16" height="24" fill="#e2b425"/><rect x="464" y="320" width="16" height="24" fill="#26282a"/><rect x="480" y="320" width="16" height="24" fill="#e2b425"/><rect x="496" y="320" width="16" height="24" fill="#26282a"/><rect x="512" y="320" width="16" height="24" fill="#e2b425"/><rect x="528" y="320" width="16" height="24" fill="#26282a"/><rect x="544" y="320" width="16" height="24" fill="#e2b425"/><rect x="560" y="320" width="16" height="24" fill="#26282a"/><rect x="310.4" y="24" width="51.2" height="51.2" fill="#e2b425" stroke="#1f2326" stroke-width="3"/><rect x="692.8" y="308.8" width="51.2" height="51.2" fill="#c8312e" stroke="#1f2326" stroke-width="3"/><rect x="1044.8" y="86.4" width="51.2" height="51.2" fill="#2f6fd0" stroke="#1f2326" stroke-width="3"/><rect x="60.8" y="72" width="102.4" height="48" fill="#efe8d6" stroke="#3a3328" stroke-width="3"/><rect x="73.6" y="86.4" width="19.2" height="19.2" fill="#e2b425" stroke="#1f2326" stroke-width="2"/><rect x="102.4" y="86.4" width="19.2" height="19.2" fill="#c8312e" stroke="#1f2326" stroke-width="2"/><rect x="131.2" y="86.4" width="19.2" height="19.2" fill="#2f6fd0" stroke="#1f2326" stroke-width="2"/><rect x="480" y="776" width="128" height="32" fill="#00000033"/><rect x="864" y="-8" width="128" height="32" fill="#00000033"/><rect x="-8" y="576" width="32" height="128" fill="#00000033"/><rect x="112" y="448" width="128" height="32" fill="#00000033"/><rect x="496" y="448" width="128" height="32" fill="#00000033"/><rect x="848" y="448" width="128" height="32" fill="#00000033"/><rect x="-3" y="765" width="134" height="38" fill="#1c1f22"/><rect x="253" y="765" width="230" height="38" fill="#1c1f22"/><rect x="605" y="765" width="262" height="38" fill="#1c1f22"/><rect x="989" y="765" width="134" height="38" fill="#1c1f22"/><rect x="-3" y="-3" width="134" height="38" fill="#1c1f22"/><rect x="253" y="-3" width="550" height="38" fill="#1c1f22"/><rect x="797" y="-3" width="70" height="38" fill="#1c1f22"/><rect x="989" y="-3" width="134" height="38" fill="#1c1f22"/><rect x="-3" y="701" width="38" height="70" fill="#1c1f22"/><rect x="-3" y="29" width="38" height="550" fill="#1c1f22"/><rect x="1085" y="701" width="38" height="70" fill="#1c1f22"/><rect x="1085" y="653" width="38" height="54" fill="#1c1f22"/><rect x="1085" y="333" width="38" height="198" fill="#1c1f22"/><rect x="1085" y="77" width="38" height="134" fill="#1c1f22"/><rect x="1085" y="29" width="38" height="54" fill="#1c1f22"/><rect x="13" y="445" width="102" height="38" fill="#1c1f22"/><rect x="237" y="445" width="262" height="38" fill="#1c1f22"/><rect x="621" y="445" width="230" height="38" fill="#1c1f22"/><rect x="973" y="445" width="134" height="38" fill="#1c1f22"/><rect x="381" y="13" width="38" height="310" fill="#1c1f22"/><rect x="733" y="13" width="38" height="454" fill="#1c1f22"/><rect x="397" y="285" width="54" height="38" fill="#1c1f22"/><rect x="573" y="285" width="134" height="38" fill="#1c1f22"/><rect x="701" y="285" width="54" height="38" fill="#1c1f22"/><rect x="0" y="768" width="128" height="32" fill="#6b7178"/><rect x="256" y="768" width="224" height="32" fill="#6b7178"/><rect x="608" y="768" width="256" height="32" fill="#6b7178"/><rect x="992" y="768" width="128" height="32" fill="#6b7178"/><rect x="0" y="0" width="128" height="32" fill="#6b7178"/><rect x="256" y="0" width="544" height="32" fill="#6b7178"/><rect x="800" y="0" width="64" height="32" fill="#6b7178"/><rect x="992" y="0" width="128" height="32" fill="#6b7178"/><rect x="0" y="704" width="32" height="64" fill="#6b7178"/><rect x="0" y="32" width="32" height="544" fill="#6b7178"/><rect x="1088" y="704" width="32" height="64" fill="#6b7178"/><rect x="1088" y="656" width="32" height="48" fill="#6b7178"/><rect x="1088" y="336" width="32" height="192" fill="#6b7178"/><rect x="1088" y="80" width="32" height="128" fill="#6b7178"/><rect x="1088" y="32" width="32" height="48" fill="#6b7178"/><rect x="16" y="448" width="96" height="32" fill="#6b7178"/><rect x="240" y="448" width="256" height="32" fill="#6b7178"/><rect x="624" y="448" width="224" height="32" fill="#6b7178"/><rect x="976" y="448" width="128" height="32" fill="#6b7178"/><rect x="384" y="16" width="32" height="304" fill="#6b7178"/><rect x="736" y="16" width="32" height="448" fill="#6b7178"/><rect x="400" y="288" width="48" height="32" fill="#6b7178"/><rect x="576" y="288" width="128" height="32" fill="#6b7178"/><rect x="704" y="288" width="48" height="32" fill="#6b7178"/></svg>
